<svg xmlns="http://www.w3.org/2000/svg" version="1.1" xmlns:xlink="http://www.w3.org/1999/xlink" xmlns:svgjs="http://svgjs.dev/svgjs" width="2000" height="1751" viewBox="0 0 2000 1751"><g transform="matrix(1,0,0,1,-2.451076123067992,-2.4774787234039195)"><svg viewBox="0 0 161 141" data-background-color="#ffffff" preserveAspectRatio="xMidYMid meet" height="1751" width="2000" xmlns="http://www.w3.org/2000/svg" xmlns:xlink="http://www.w3.org/1999/xlink"><g id="tight-bounds" transform="matrix(1,0,0,1,0.19731162790697,0.19949999999997203)"><svg viewBox="0 0 160.6053767441861 140.60052000000002" height="140.60052000000002" width="160.6053767441861"><g><svg viewBox="0 0 160.6053767441861 140.60052000000002" height="140.60052000000002" width="160.6053767441861"><g><svg viewBox="0 0 160.6053767441861 140.60052000000002" height="140.60052000000002" width="160.6053767441861"><g><path d="M0 140.601v-140.601h160.605v140.601z" fill="#ed1703" stroke="transparent" stroke-width="0" rx="0%" data-fill-palette-color="tertiary"></path><path d="M3.283 137.317v-134.034h154.039v134.034z" fill="#ffffff" stroke="transparent" stroke-width="0" rx="0%" data-fill-palette-color="quaternary"></path><path d="M9.85 130.751v-120.901h140.906v120.901z" fill="#ed1703" stroke="transparent" stroke-width="0" data-fill-palette-color="tertiary"></path></g><g transform="matrix(1,0,0,1,19.69974,19.69974)" id="textblocktransform"><svg viewBox="0 0 121.20589674418609 101.20104000000002" height="101.20104000000002" width="121.20589674418609" id="textblock"><g><svg viewBox="0 0 121.20589674418609 101.20104000000002" height="101.20104000000002" width="121.20589674418609"><g transform="matrix(1,0,0,1,0,0)"><svg width="121.20589674418609" viewBox="3 -34.400001525878906 41.20000076293945 34.400001525878906" height="101.20104000000002" data-palette-color="#ffffff"><path d="M44.2 0L33.25 0 33.25-12.4Q33.25-14.7 33.43-17.13 33.6-19.55 33.8-21.2 34-22.85 34.05-23.3L34.05-23.3 33.85-23.3 27.5 0 18.85 0 12.45-23.25 12.25-23.25Q12.3-22.8 12.53-21.18 12.75-19.55 12.95-17.13 13.15-14.7 13.15-12.4L13.15-12.4 13.15 0 3 0 3-34.4 18.6-34.4 23.8-14.55 24-14.55 29.15-34.4 44.2-34.4 44.2 0Z" opacity="1" transform="matrix(1,0,0,1,0,0)" fill="#ffffff" class="undefined-text-0" data-fill-palette-color="quaternary" id="text-0"></path></svg></g></svg></g></svg></g></svg></g><g></g></svg></g><defs></defs></svg><rect width="160.6053767441861" height="140.60052000000002" fill="none" stroke="none" visibility="hidden"></rect></g></svg></g></svg>